<svg xmlns="http://www.w3.org/2000/svg" xmlns:xlink="http://www.w3.org/1999/xlink" width="77" zoomAndPan="magnify" viewBox="0 0 57.75 30.000001" height="40" preserveAspectRatio="xMidYMid meet" version="1.2"><defs><clipPath id="7f2aecb9a7"><path d="M 24 2 L 29.90625 2 L 29.90625 8 L 24 8 Z M 24 2 "/></clipPath><clipPath id="b8b11ad1b0"><rect x="0" width="30" y="0" height="10"/></clipPath><clipPath id="ccff4a7a34"><path d="M 22 10 L 56.699219 10 L 56.699219 23 L 22 23 Z M 22 10 "/></clipPath><clipPath id="218983dc27"><path d="M 27 3 L 34.699219 3 L 34.699219 10 L 27 10 Z M 27 3 "/></clipPath><clipPath id="016ae1843b"><rect x="0" width="35" y="0" height="13"/></clipPath><clipPath id="7b05ca716a"><path d="M 16 1 L 21 1 L 21 21 L 16 21 Z M 16 1 "/></clipPath><clipPath id="5ab0a0f1b9"><path d="M 0.8125 18.195312 L 18.773438 0.234375 L 29.554688 11.011719 L 11.589844 28.972656 Z M 0.8125 18.195312 "/></clipPath><clipPath id="c6c6e40990"><path d="M 0.8125 18.195312 L 18.773438 0.234375 L 29.554688 11.011719 L 11.589844 28.972656 Z M 0.8125 18.195312 "/></clipPath><clipPath id="1ff398d342"><path d="M 7.628906 11.652344 L 19.140625 0.136719 L 29.777344 10.773438 L 18.261719 22.285156 Z M 7.628906 11.652344 "/></clipPath><clipPath id="c0c599d134"><path d="M 9 8 L 15 8 L 15 21 L 9 21 Z M 9 8 "/></clipPath><clipPath id="f370d9a886"><path d="M 0.8125 18.195312 L 18.773438 0.234375 L 29.554688 11.011719 L 11.589844 28.972656 Z M 0.8125 18.195312 "/></clipPath><clipPath id="5f2c9280d9"><path d="M 0.8125 18.195312 L 18.773438 0.234375 L 29.554688 11.011719 L 11.589844 28.972656 Z M 0.8125 18.195312 "/></clipPath><clipPath id="3d9257ba08"><path d="M 2 15 L 9 15 L 9 21 L 2 21 Z M 2 15 "/></clipPath><clipPath id="a570fc90f1"><path d="M 0.8125 18.195312 L 18.773438 0.234375 L 29.554688 11.011719 L 11.589844 28.972656 Z M 0.8125 18.195312 "/></clipPath><clipPath id="e5cb9920b8"><path d="M 0.8125 18.195312 L 18.773438 0.234375 L 29.554688 11.011719 L 11.589844 28.972656 Z M 0.8125 18.195312 "/></clipPath></defs><g id="401bed6457"><g transform="matrix(1,0,0,1,22,6)"><g clip-path="url(#b8b11ad1b0)"><g style="fill:#6366f1;fill-opacity:1;"><g transform="translate(1.148248, 7.080349)"><path style="stroke:none" d="M 0.296875 0 L 0.296875 -4.265625 L 2.515625 -4.265625 C 2.890625 -4.265625 3.21875 -4.191406 3.5 -4.046875 C 3.78125 -3.910156 3.992188 -3.71875 4.140625 -3.46875 C 4.296875 -3.226562 4.375 -2.9375 4.375 -2.59375 C 4.375 -2.25 4.296875 -1.953125 4.140625 -1.703125 C 3.992188 -1.453125 3.78125 -1.253906 3.5 -1.109375 C 3.226562 -0.972656 2.90625 -0.90625 2.53125 -0.90625 L 2.046875 -0.90625 L 2.046875 0 Z M 2 -2.1875 L 2.21875 -2.1875 C 2.507812 -2.1875 2.65625 -2.3125 2.65625 -2.5625 C 2.65625 -2.8125 2.507812 -2.9375 2.21875 -2.9375 L 2 -2.9375 Z M 2 -2.1875 "/></g></g><g style="fill:#6366f1;fill-opacity:1;"><g transform="translate(5.626894, 7.080349)"><path style="stroke:none" d="M 0 0 L 1.515625 -4.265625 L 3.40625 -4.265625 L 4.90625 0 L 3.109375 0 L 2.96875 -0.484375 L 1.921875 -0.484375 L 1.78125 0 Z M 2.15625 -1.515625 L 2.734375 -1.515625 L 2.46875 -2.53125 L 2.421875 -2.53125 Z M 2.15625 -1.515625 "/></g></g><g style="fill:#6366f1;fill-opacity:1;"><g transform="translate(10.53817, 7.080349)"><path style="stroke:none" d="M 0.296875 0 L 0.296875 -4.265625 L 1.703125 -4.265625 L 2.921875 -2.734375 L 4.125 -4.265625 L 5.53125 -4.265625 L 5.53125 0 L 3.859375 0 L 3.859375 -0.84375 L 3.890625 -1.5625 L 3.84375 -1.578125 L 3.328125 -0.84375 L 2.515625 -0.84375 L 2 -1.578125 L 1.9375 -1.578125 L 1.96875 -0.84375 L 1.96875 0 Z M 0.296875 0 "/></g></g><g style="fill:#6366f1;fill-opacity:1;"><g transform="translate(16.36955, 7.080349)"><path style="stroke:none" d="M 2.515625 0.078125 C 2.035156 0.078125 1.613281 -0.015625 1.25 -0.203125 C 0.894531 -0.390625 0.613281 -0.648438 0.40625 -0.984375 C 0.207031 -1.316406 0.109375 -1.695312 0.109375 -2.125 C 0.109375 -2.5625 0.207031 -2.945312 0.40625 -3.28125 C 0.613281 -3.613281 0.894531 -3.875 1.25 -4.0625 C 1.613281 -4.25 2.035156 -4.34375 2.515625 -4.34375 C 2.992188 -4.34375 3.414062 -4.25 3.78125 -4.0625 C 4.144531 -3.875 4.425781 -3.613281 4.625 -3.28125 C 4.820312 -2.945312 4.921875 -2.5625 4.921875 -2.125 C 4.921875 -1.695312 4.820312 -1.316406 4.625 -0.984375 C 4.425781 -0.648438 4.144531 -0.390625 3.78125 -0.203125 C 3.414062 -0.015625 2.992188 0.078125 2.515625 0.078125 Z M 1.859375 -2.125 C 1.859375 -1.925781 1.914062 -1.765625 2.03125 -1.640625 C 2.15625 -1.523438 2.316406 -1.46875 2.515625 -1.46875 C 2.710938 -1.46875 2.875 -1.523438 3 -1.640625 C 3.125 -1.765625 3.1875 -1.925781 3.1875 -2.125 C 3.1875 -2.332031 3.125 -2.492188 3 -2.609375 C 2.875 -2.734375 2.710938 -2.796875 2.515625 -2.796875 C 2.316406 -2.796875 2.15625 -2.734375 2.03125 -2.609375 C 1.914062 -2.492188 1.859375 -2.332031 1.859375 -2.125 Z M 1.859375 -2.125 "/></g></g><g style="fill:#6366f1;fill-opacity:1;"><g transform="translate(21.402692, 7.080349)"><path style="stroke:none" d="M 0.15625 0 L 0.15625 -1.5625 L 0.75 -1.5625 C 0.925781 -1.5625 1.050781 -1.597656 1.125 -1.671875 C 1.207031 -1.753906 1.25 -1.890625 1.25 -2.078125 L 1.25 -4.265625 L 3 -4.265625 L 3 -1.71875 C 3 -1.175781 2.832031 -0.753906 2.5 -0.453125 C 2.164062 -0.148438 1.695312 0 1.09375 0 Z M 0.15625 0 "/></g></g><g clip-rule="nonzero" clip-path="url(#7f2aecb9a7)"><g style="fill:#6366f1;fill-opacity:1;"><g transform="translate(24.693125, 7.080349)"><path style="stroke:none" d="M 0 0 L 1.515625 -4.265625 L 3.40625 -4.265625 L 4.90625 0 L 3.109375 0 L 2.96875 -0.484375 L 1.921875 -0.484375 L 1.78125 0 Z M 2.15625 -1.515625 L 2.734375 -1.515625 L 2.46875 -2.53125 L 2.421875 -2.53125 Z M 2.15625 -1.515625 "/></g></g></g></g></g><g clip-rule="nonzero" clip-path="url(#ccff4a7a34)"><g transform="matrix(1,0,0,1,22,10)"><g clip-path="url(#016ae1843b)"><g style="fill:#6366f1;fill-opacity:1;"><g transform="translate(0.769791, 9.404182)"><path style="stroke:none" d="M 0.40625 0 L 0.40625 -5.828125 L 2.796875 -5.828125 L 2.796875 -4 L 2.890625 -4 C 3.066406 -4 3.191406 -4.03125 3.265625 -4.09375 C 3.347656 -4.15625 3.414062 -4.273438 3.46875 -4.453125 L 3.875 -5.828125 L 6.390625 -5.828125 L 5.625 -3.515625 C 5.539062 -3.253906 5.4375 -3.023438 5.3125 -2.828125 L 6.609375 0 L 3.9375 0 L 3.15625 -1.9375 L 2.796875 -1.9375 L 2.796875 0 Z M 0.40625 0 "/></g></g><g style="fill:#6366f1;fill-opacity:1;"><g transform="translate(7.480597, 9.404182)"><path style="stroke:none" d="M 3.4375 0.109375 C 2.78125 0.109375 2.203125 -0.015625 1.703125 -0.265625 C 1.210938 -0.523438 0.832031 -0.882812 0.5625 -1.34375 C 0.289062 -1.800781 0.15625 -2.328125 0.15625 -2.921875 C 0.15625 -3.515625 0.289062 -4.035156 0.5625 -4.484375 C 0.832031 -4.941406 1.210938 -5.300781 1.703125 -5.5625 C 2.203125 -5.820312 2.78125 -5.953125 3.4375 -5.953125 C 4.101562 -5.953125 4.679688 -5.820312 5.171875 -5.5625 C 5.660156 -5.300781 6.039062 -4.941406 6.3125 -4.484375 C 6.582031 -4.035156 6.71875 -3.515625 6.71875 -2.921875 C 6.71875 -2.328125 6.582031 -1.800781 6.3125 -1.34375 C 6.039062 -0.882812 5.660156 -0.523438 5.171875 -0.265625 C 4.679688 -0.015625 4.101562 0.109375 3.4375 0.109375 Z M 2.53125 -2.921875 C 2.53125 -2.640625 2.613281 -2.414062 2.78125 -2.25 C 2.957031 -2.082031 3.175781 -2 3.4375 -2 C 3.707031 -2 3.925781 -2.082031 4.09375 -2.25 C 4.257812 -2.414062 4.34375 -2.640625 4.34375 -2.921875 C 4.34375 -3.191406 4.257812 -3.410156 4.09375 -3.578125 C 3.925781 -3.742188 3.707031 -3.828125 3.4375 -3.828125 C 3.175781 -3.828125 2.957031 -3.742188 2.78125 -3.578125 C 2.613281 -3.410156 2.53125 -3.191406 2.53125 -2.921875 Z M 2.53125 -2.921875 "/></g></g><g style="fill:#6366f1;fill-opacity:1;"><g transform="translate(14.357924, 9.404182)"><path style="stroke:none" d="M 0.40625 0 L 0.40625 -5.828125 L 2.328125 -5.828125 L 3.828125 -3.71875 L 3.90625 -3.734375 L 3.859375 -4.515625 L 3.859375 -5.828125 L 6.15625 -5.828125 L 6.15625 0 L 4.25 0 L 2.734375 -2.109375 L 2.671875 -2.109375 L 2.703125 -1.3125 L 2.703125 0 Z M 0.40625 0 "/></g></g><g style="fill:#6366f1;fill-opacity:1;"><g transform="translate(20.927187, 9.404182)"><path style="stroke:none" d="M 3.359375 0.109375 C 2.734375 0.109375 2.175781 -0.015625 1.6875 -0.265625 C 1.207031 -0.523438 0.832031 -0.878906 0.5625 -1.328125 C 0.289062 -1.785156 0.15625 -2.316406 0.15625 -2.921875 C 0.15625 -3.515625 0.289062 -4.039062 0.5625 -4.5 C 0.832031 -4.957031 1.207031 -5.3125 1.6875 -5.5625 C 2.164062 -5.820312 2.722656 -5.953125 3.359375 -5.953125 C 3.878906 -5.953125 4.351562 -5.859375 4.78125 -5.671875 C 5.207031 -5.492188 5.566406 -5.242188 5.859375 -4.921875 C 6.148438 -4.597656 6.351562 -4.207031 6.46875 -3.75 L 4.203125 -3.75 C 4.015625 -3.96875 3.738281 -4.078125 3.375 -4.078125 C 3.03125 -4.078125 2.757812 -3.972656 2.5625 -3.765625 C 2.363281 -3.554688 2.265625 -3.273438 2.265625 -2.921875 C 2.265625 -2.554688 2.363281 -2.265625 2.5625 -2.046875 C 2.757812 -1.835938 3.035156 -1.734375 3.390625 -1.734375 C 3.609375 -1.734375 3.796875 -1.773438 3.953125 -1.859375 C 4.109375 -1.941406 4.234375 -2.054688 4.328125 -2.203125 L 3.0625 -2.203125 L 3.0625 -3.40625 L 6.53125 -3.40625 C 6.59375 -2.894531 6.5625 -2.421875 6.4375 -1.984375 C 6.3125 -1.554688 6.109375 -1.1875 5.828125 -0.875 C 5.546875 -0.5625 5.195312 -0.316406 4.78125 -0.140625 C 4.363281 0.0234375 3.890625 0.109375 3.359375 0.109375 Z M 3.359375 0.109375 "/></g></g><g clip-rule="nonzero" clip-path="url(#218983dc27)"><g style="fill:#6366f1;fill-opacity:1;"><g transform="translate(27.637993, 9.404182)"><path style="stroke:none" d="M 3.4375 0.109375 C 2.78125 0.109375 2.203125 -0.015625 1.703125 -0.265625 C 1.210938 -0.523438 0.832031 -0.882812 0.5625 -1.34375 C 0.289062 -1.800781 0.15625 -2.328125 0.15625 -2.921875 C 0.15625 -3.515625 0.289062 -4.035156 0.5625 -4.484375 C 0.832031 -4.941406 1.210938 -5.300781 1.703125 -5.5625 C 2.203125 -5.820312 2.78125 -5.953125 3.4375 -5.953125 C 4.101562 -5.953125 4.679688 -5.820312 5.171875 -5.5625 C 5.660156 -5.300781 6.039062 -4.941406 6.3125 -4.484375 C 6.582031 -4.035156 6.71875 -3.515625 6.71875 -2.921875 C 6.71875 -2.328125 6.582031 -1.800781 6.3125 -1.34375 C 6.039062 -0.882812 5.660156 -0.523438 5.171875 -0.265625 C 4.679688 -0.015625 4.101562 0.109375 3.4375 0.109375 Z M 2.53125 -2.921875 C 2.53125 -2.640625 2.613281 -2.414062 2.78125 -2.25 C 2.957031 -2.082031 3.175781 -2 3.4375 -2 C 3.707031 -2 3.925781 -2.082031 4.09375 -2.25 C 4.257812 -2.414062 4.34375 -2.640625 4.34375 -2.921875 C 4.34375 -3.191406 4.257812 -3.410156 4.09375 -3.578125 C 3.925781 -3.742188 3.707031 -3.828125 3.4375 -3.828125 C 3.175781 -3.828125 2.957031 -3.742188 2.78125 -3.578125 C 2.613281 -3.410156 2.53125 -3.191406 2.53125 -2.921875 Z M 2.53125 -2.921875 "/></g></g></g></g></g></g><g clip-rule="nonzero" clip-path="url(#7b05ca716a)"><g clip-rule="nonzero" clip-path="url(#5ab0a0f1b9)"><g clip-rule="nonzero" clip-path="url(#c6c6e40990)"><g clip-rule="nonzero" clip-path="url(#1ff398d342)"><path style=" stroke:none;fill-rule:nonzero;fill:#6366f1;fill-opacity:1;" d="M 16.066406 4.15625 L 16.066406 20.078125 L 20.179688 20.078125 C 20.570312 20.078125 20.886719 19.761719 20.886719 19.371094 L 20.886719 1.878906 L 18.339844 1.878906 C 17.085938 1.878906 16.066406 2.898438 16.066406 4.15625 "/></g></g></g></g><g clip-rule="nonzero" clip-path="url(#c0c599d134)"><g clip-rule="nonzero" clip-path="url(#f370d9a886)"><g clip-rule="nonzero" clip-path="url(#5f2c9280d9)"><path style=" stroke:none;fill-rule:nonzero;fill:#6366f1;fill-opacity:1;" d="M 9.632812 10.644531 L 9.632812 20.078125 L 14.453125 20.078125 L 14.453125 8.371094 L 11.90625 8.371094 C 10.652344 8.371094 9.632812 9.386719 9.632812 10.644531 "/></g></g></g><g clip-rule="nonzero" clip-path="url(#3d9257ba08)"><g clip-rule="nonzero" clip-path="url(#a570fc90f1)"><g clip-rule="nonzero" clip-path="url(#e5cb9920b8)"><path style=" stroke:none;fill-rule:nonzero;fill:#6366f1;fill-opacity:1;" d="M 8.03125 15.285156 L 7.023438 15.285156 C 4.644531 15.285156 2.71875 17.210938 2.71875 19.585938 L 2.71875 20.101562 L 8.03125 20.101562 L 8.03125 15.285156 "/></g></g></g></g></svg>